HIERARCHY
ROOT root
{
	OFFSET 0.00 0.00 0.00
	CHANNELS 6 Xposition Yposition Zposition Zrotation Xrotation Yrotation
	JOINT lowerback
	{
		OFFSET 0 0 0
		CHANNELS 6 Xposition Yposition Zposition Zrotation Xrotation Yrotation
		JOINT upperback
		{
			OFFSET -0.214371 12.3768 -1.12219
			CHANNELS 6 Xposition Yposition Zposition Zrotation Xrotation Yrotation
			JOINT thorax
			{
				OFFSET -0.00137213 12.3873 0.296195
				CHANNELS 6 Xposition Yposition Zposition Zrotation Xrotation Yrotation
				JOINT lowerneck
				{
					OFFSET 0.0883157 12.5016 0.82912
					CHANNELS 6 Xposition Yposition Zposition Zrotation Xrotation Yrotation
					JOINT upperneck
					{
						OFFSET -1 10.1794 0.943522
						CHANNELS 6 Xposition Yposition Zposition Zrotation Xrotation Yrotation
						JOINT head
						{
							OFFSET 0.667525 10.2797 -1.57149
							CHANNELS 6 Xposition Yposition Zposition Zrotation Xrotation Yrotation
							End Site
							{
								OFFSET 0 0 0
							}
						}
					}
				}
				JOINT lclavicle
				{
					OFFSET 0.0883157 12.5016 0.82912
					CHANNELS 6 Xposition Yposition Zposition Zrotation Xrotation Yrotation
					JOINT lhumerus
					{
						OFFSET 20.61 4.45006 1.43784
						CHANNELS 6 Xposition Yposition Zposition Zrotation Xrotation Yrotation
						JOINT lradius
						{
							OFFSET 0 -30.3438 0
							CHANNELS 6 Xposition Yposition Zposition Zrotation Xrotation Yrotation
							JOINT lwrist
							{
								OFFSET 0 -18.964 0
								CHANNELS 6 Xposition Yposition Zposition Zrotation Xrotation Yrotation
								JOINT lhand
								{
									OFFSET 0 -9.48199 0
									CHANNELS 6 Xposition Yposition Zposition Zrotation Xrotation Yrotation
									JOINT lfingers
									{
										OFFSET 0 -3.17138 0
										CHANNELS 6 Xposition Yposition Zposition Zrotation Xrotation Yrotation
										End Site
										{
											OFFSET 0 -2.55685 0
										}
									}
								}
								JOINT lthumb
								{
									OFFSET 0 -9.48199 0
									CHANNELS 6 Xposition Yposition Zposition Zrotation Xrotation Yrotation
									End Site
									{
										OFFSET 0 -3.67114 0
									}
								}
							}
						}
					}
				}
				JOINT rclavicle
				{
					OFFSET 0.0883157 12.5016 0.82912
					CHANNELS 6 Xposition Yposition Zposition Zrotation Xrotation Yrotation
					JOINT rhumerus
					{
						OFFSET -20.61 4.45 1.44
						CHANNELS 6 Xposition Yposition Zposition Zrotation Xrotation Yrotation
						JOINT rradius
						{
							OFFSET 0 -29.5102 0
							CHANNELS 6 Xposition Yposition Zposition Zrotation Xrotation Yrotation
							JOINT rwrist
							{
								OFFSET 0 -19.2342 0
								CHANNELS 6 Xposition Yposition Zposition Zrotation Xrotation Yrotation
								JOINT rhand
								{
									OFFSET 0 -9.61712 0
									CHANNELS 6 Xposition Yposition Zposition Zrotation Xrotation Yrotation
									JOINT rfingers
									{
										OFFSET 0 -3.29215 0
										CHANNELS 6 Xposition Yposition Zposition Zrotation Xrotation Yrotation
										End Site
										{
											OFFSET 0 -2.557 0
										}
									}
								}
								JOINT rthumb
								{
									OFFSET 0 -9.61712 0
									CHANNELS 6 Xposition Yposition Zposition Zrotation Xrotation Yrotation
									End Site
									{
										OFFSET 0 -3.671 0
									}
								}
							}
						}
					}
				}
			}
		}
	}
	JOINT rfemur
	{
		OFFSET -8.46272 -9.62775 4.76248
		CHANNELS 6 Xposition Yposition Zposition Zrotation Xrotation Yrotation
		JOINT rtibia
		{
			OFFSET 1.00552e-005 -38.0331 0
			CHANNELS 6 Xposition Yposition Zposition Zrotation Xrotation Yrotation
			JOINT rfoot
			{
				OFFSET 1.14428e-005 -43.2815 0
				CHANNELS 6 Xposition Yposition Zposition Zrotation Xrotation Yrotation
				JOINT rtoes
				{
					OFFSET 0 -14.1868 -3.08763
					CHANNELS 6 Xposition Yposition Zposition Zrotation Xrotation Yrotation
					End Site
					{
						OFFSET 0 -7.27332 0
					}
				}
			}
		}
	}
	JOINT lfemur
	{
		OFFSET 9.10607 -9.62778 4.76249
		CHANNELS 6 Xposition Yposition Zposition Zrotation Xrotation Yrotation
		JOINT ltibia
		{
			OFFSET -1.01399e-005 -38.3535 0
			CHANNELS 6 Xposition Yposition Zposition Zrotation Xrotation Yrotation
			JOINT lfoot
			{
				OFFSET -1.12937e-005 -42.7176 0
				CHANNELS 6 Xposition Yposition Zposition Zrotation Xrotation Yrotation
				JOINT ltoes
				{
					OFFSET 0 -13.9965 -2.83857
					CHANNELS 6 Xposition Yposition Zposition Zrotation Xrotation Yrotation
					End Site
					{
						OFFSET 0 -7.16348 0
					}
				}
			}
		}
	}
}
MOTION
Frames: 9
Frame Time: 0.00833333
0.169462	100.444	78.3491	4.00645	4.96411	5.83896	0 0 0 2.17311	3.77902	0.917187	-0.214371 12.3768 -1.12219 2.7022	0.176809	1.33297	-0.00137213 12.3873 0.296195 1.47648	-1.95173	0.640489	0.0883157 12.5016 0.82912 1.44969	-16.754	1.11502	-1 10.1794 0.943522 0.00999459	-1.55055	0.994573	0.667525 10.2797 -1.57149 -0.150914	2.40167	0.406737	0.0883157 12.5016 0.82912 -15	0	-0	20.61 4.45006 1.43784 19.5824	11.3151	170.621	0 -30.3438 0 -0	18.5576	-0	0 -18.964 0 1.32405e-014	-3.24017e-015	-117.502	0 -9.48199 0 1.22245	4.37968	-2.58917e-014	0 -3.17138 0 -0	7.12502	-0	0 -9.48199 0 25	15	-1.36605e-015	0.0883157 12.5016 0.82912 15	0	-0	-20.61 4.45 1.44 -16.6222	14.2508	165.879	0 -29.5102 0 -0	25.8029	-0	0 -19.2342 0 2.6374e-016	-1.90568e-015	105.759	0 -9.61712 0 1.22	4.38	-0	0 -3.29215 0 -0	7.12502	-0	0 -9.61712 0 25	15	-7.97034e-015	-8.46272 -9.62775 4.76248 -5.32085	-17.4464	-5.86913	1.00552e-005 -38.0331 0 -0	39.0567	-0	1.14428e-005 -43.2815 0 -37.4558	-82.2417	-37.7104	0 -14.1868 -3.08763 -0	-13.9922	-0	9.10607 -9.62778 4.76249 8.24186	-15.9196	16.1438	-1.01399e-005 -38.3535 0 -0	81.7045	-0	-1.12937e-005 -42.7176 0 -14.3169	-65.5004	-15.6669	0 -13.9965 -2.83857 -0	-34.9595	-0
0.126974	101.05	79.534	3.83894	4.83073	5.8903	0 0 0 2.47287	3.64008	1.28622	-0.214371 12.3768 -1.12219 2.66105	0.122262	1.83204	-0.00137213 12.3873 0.296195 1.23873	-1.91649	0.886293	0.0883157 12.5016 0.82912 1.60475	-16.9137	1.25272	-1 10.1794 0.943522 -0.369111	-1.22279	1.16914	0.667525 10.2797 -1.57149 -0.284495	2.55034	0.484281	0.0883157 12.5016 0.82912 -15	0	-0	20.61 4.45006 1.43784 20.8284	12.4656	169.942	0 -30.3438 0 -0	19.1282	-0	0 -18.964 0 1.32548e-014	-3.21255e-015	-117.248	0 -9.48199 0 1.22245	4.37968	-2.58917e-014	0 -3.17138 0 -0	7.12502	-0	0 -9.48199 0 25	15	-1.36605e-015	0.0883157 12.5016 0.82912 15	0	-0	-20.61 4.45 1.44 -17.0339	13.8788	167.641	0 -29.5102 0 -0	26.8012	-0	0 -19.2342 0 2.5405e-016	-1.871e-015	105.465	0 -9.61712 0 1.22	4.38	-0	0 -3.29215 0 -0	7.12502	-0	0 -9.61712 0 25	15	-7.97034e-015	-8.46272 -9.62775 4.76248 -4.94278	-15.8939	-5.7023	1.00552e-005 -38.0331 0 -0	37.7086	-0	1.14428e-005 -43.2815 0 -36.1024	-81.3651	-36.4138	0 -14.1868 -3.08763 -0	-13.9292	-0	9.10607 -9.62778 4.76249 8.42253	-18.0604	16.7296	-1.01399e-005 -38.3535 0 -0	83.2708	-0	-1.12937e-005 -42.7176 0 -13.806	-66.3562	-15.0163	0 -13.9965 -2.83857 -0	-34.8855	-0
0.0961823	101.609	80.7067	3.63198	4.70616	5.83999	0 0 0 2.82605	3.52863	1.67115	-0.214371 12.3768 -1.12219 2.6203	0.0835958	2.35386	-0.00137213 12.3873 0.296195 0.972283	-1.87217	1.14288	0.0883157 12.5016 0.82912 1.76876	-17.0529	1.40589	-1 10.1794 0.943522 -0.72934	-0.937264	1.36208	0.667525 10.2797 -1.57149 -0.412425	2.68283	0.56992	0.0883157 12.5016 0.82912 -15	0	-0	20.61 4.45006 1.43784 22.1448	13.6449	169.177	0 -30.3438 0 -0	19.9258	-0	0 -18.964 0 1.32809e-014	-3.16138e-015	-116.779	0 -9.48199 0 1.22245	4.37968	-2.58917e-014	0 -3.17138 0 -0	7.12502	-0	0 -9.48199 0 25	15	-1.36605e-015	0.0883157 12.5016 0.82912 15	0	-0	-20.61 4.45 1.44 -17.5314	13.5074	169.567	0 -29.5102 0 -0	27.857	-0	0 -19.2342 0 2.43738e-016	-1.83332e-015	105.146	0 -9.61712 0 1.22	4.38	-0	0 -3.29215 0 -0	7.12502	-0	0 -9.61712 0 25	15	-7.97034e-015	-8.46272 -9.62775 4.76248 -4.5438	-14.4776	-5.54341	1.00552e-005 -38.0331 0 -0	36.5002	-0	1.14428e-005 -43.2815 0 -34.867	-80.4391	-35.2437	0 -14.1868 -3.08763 -0	-13.8277	-0	9.10607 -9.62778 4.76249 8.61037	-20.1687	17.3694	-1.01399e-005 -38.3535 0 -0	84.6357	-0	-1.12937e-005 -42.7176 0 -12.942	-67.2133	-13.9962	0 -13.9965 -2.83857 -0	-34.7535	-0
0.0736724	102.116	81.8722	3.38247	4.58923	5.69962	0 0 0 3.22904	3.444	2.06528	-0.214371 12.3768 -1.12219 2.5816	0.06025	2.88944	-0.00137213 12.3873 0.296195 0.681419	-1.8184	1.40591	0.0883157 12.5016 0.82912 1.93949	-17.1709	1.571	-1 10.1794 0.943522 -1.06784	-0.690169	1.56885	0.667525 10.2797 -1.57149 -0.533585	2.79989	0.661896	0.0883157 12.5016 0.82912 -15	0	-0	20.61 4.45006 1.43784 23.5215	14.8542	168.372	0 -30.3438 0 -0	20.9246	-0	0 -18.964 0 1.33163e-014	-3.09011e-015	-116.129	0 -9.48199 0 1.22245	4.37968	-2.58917e-014	0 -3.17138 0 -0	7.12502	-0	0 -9.48199 0 25	15	-1.36605e-015	0.0883157 12.5016 0.82912 15	0	-0	-20.61 4.45 1.44 -18.1095	13.1271	171.608	0 -29.5102 0 -0	28.9773	-0	0 -19.2342 0 2.32728e-016	-1.79215e-015	104.798	0 -9.61712 0 1.22	4.38	-0	0 -3.29215 0 -0	7.12502	-0	0 -9.61712 0 25	15	-7.97034e-015	-8.46272 -9.62775 4.76248 -4.11596	-13.1823	-5.39037	1.00552e-005 -38.0331 0 -0	35.4207	-0	1.14428e-005 -43.2815 0 -33.8484	-79.4817	-34.2989	0 -14.1868 -3.08763 -0	-13.6589	-0	9.10607 -9.62778 4.76249 8.81998	-22.2361	18.0509	-1.01399e-005 -38.3535 0 -0	85.7916	-0	-1.12937e-005 -42.7176 0 -11.7887	-68.0474	-12.6816	0 -13.9965 -2.83857 -0	-34.5824	-0
0.0561949	102.567	83.0337	3.08911	4.47879	5.48531	0 0 0 3.67543	3.38457	2.46091	-0.214371 12.3768 -1.12219 2.54645	0.051425	3.42833	-0.00137213 12.3873 0.296195 0.371762	-1.75496	1.67038	0.0883157 12.5016 0.82912 2.11371	-17.2678	1.74377	-1 10.1794 0.943522 -1.38217	-0.477023	1.78419	0.667525 10.2797 -1.57149 -0.646913	2.90259	0.758049	0.0883157 12.5016 0.82912 -15	0	-0	20.61 4.45006 1.43784 24.9471	16.0939	167.57	0 -30.3438 0 -0	22.0951	-0	0 -18.964 0 1.33585e-014	-3.00274e-015	-115.337	0 -9.48199 0 1.22245	4.37968	-2.58917e-014	0 -3.17138 0 -0	7.12502	-0	0 -9.48199 0 25	15	-1.36605e-015	0.0883157 12.5016 0.82912 15	0	-0	-20.61 4.45 1.44 -18.7617	12.7296	173.721	0 -29.5102 0 -0	30.1705	-0	0 -19.2342 0 2.21052e-016	-1.74736e-015	104.42	0 -9.61712 0 1.22	4.38	-0	0 -3.29215 0 -0	7.12502	-0	0 -9.61712 0 25	15	-7.97034e-015	-8.46272 -9.62775 4.76248 -3.65232	-11.9894	-5.2424	1.00552e-005 -38.0331 0 -0	34.4556	-0	1.14428e-005 -43.2815 0 -33.1113	-78.5165	-33.6435	0 -14.1868 -3.08763 -0	-13.3978	-0	9.10607 -9.62778 4.76249 9.05967	-24.2547	18.7555	-1.01399e-005 -38.3535 0 -0	86.7296	-0	-1.12937e-005 -42.7176 0 -10.4326	-68.8363	-11.1689	0 -13.9965 -2.83857 -0	-34.3905	-0
0.0410999	102.963	84.1941	2.75264	4.37361	5.21663	0 0 0 4.1565	3.34813	2.84972	-0.214371 12.3768 -1.12219 2.51602	0.056293	3.95918	-0.00137213 12.3873 0.296195 0.0499075	-1.68185	1.93087	0.0883157 12.5016 0.82912 2.28723	-17.3447	1.91939	-1 10.1794 0.943522 -1.6703	-0.293216	2.00234	0.667525 10.2797 -1.57149 -0.751408	2.99218	0.855926	0.0883157 12.5016 0.82912 -15	0	-0	20.61 4.45006 1.43784 26.4082	17.3632	166.814	0 -30.3438 0 -0	23.4044	-0	0 -18.964 0 1.34046e-014	-2.90321e-015	-114.441	0 -9.48199 0 1.22245	4.37968	-2.58917e-014	0 -3.17138 0 -0	7.12502	-0	0 -9.48199 0 25	15	-1.36605e-015	0.0883157 12.5016 0.82912 15	0	-0	-20.61 4.45 1.44 -19.4807	12.3073	175.873	0 -29.5102 0 -0	31.4447	-0	0 -19.2342 0 2.08782e-016	-1.69892e-015	104.012	0 -9.61712 0 1.22	4.38	-0	0 -3.29215 0 -0	7.12502	-0	0 -9.61712 0 25	15	-7.97034e-015	-8.46272 -9.62775 4.76248 -3.14756	-10.8786	-5.10048	1.00552e-005 -38.0331 0 -0	33.5887	-0	1.14428e-005 -43.2815 0 -32.692	-77.571	-33.3126	0 -14.1868 -3.08763 -0	-13.027	-0	9.10607 -9.62778 4.76249 9.33026	-26.2178	19.4588	-1.01399e-005 -38.3535 0 -0	87.4405	-0	-1.12937e-005 -42.7176 0 -8.97569	-69.5636	-9.56784	0 -13.9965 -2.83857 -0	-34.1953	-0
0.0236017	103.302	85.3545	2.37587	4.27242	4.91517	0 0 0 4.66171	3.33212	3.22335	-0.214371 12.3768 -1.12219 2.4911	0.074185	4.4705	-0.00137213 12.3873 0.296195 -0.276989	-1.59923	2.18188	0.0883157 12.5016 0.82912 2.45512	-17.4029	2.09276	-1 10.1794 0.943522 -1.93066	-0.134509	2.21737	0.667525 10.2797 -1.57149 -0.846123	3.06988	0.952918	0.0883157 12.5016 0.82912 -15	0	-0	20.61 4.45006 1.43784 27.89	18.6602	166.139	0 -30.3438 0 -0	24.8166	-0	0 -18.964 0 1.34525e-014	-2.79555e-015	-113.479	0 -9.48199 0 1.22245	4.37968	-2.58917e-014	0 -3.17138 0 -0	7.12502	-0	0 -9.48199 0 25	15	-1.36605e-015	0.0883157 12.5016 0.82912 15	0	-0	-20.61 4.45 1.44 -20.2591	11.8524	178.036	0 -29.5102 0 -0	32.8062	-0	0 -19.2342 0 1.96195e-016	-1.64766e-015	103.581	0 -9.61712 0 1.22	4.38	-0	0 -3.29215 0 -0	7.12502	-0	0 -9.61712 0 25	15	-7.97034e-015	-8.46272 -9.62775 4.76248 -2.59848	-9.82929	-4.96755	1.00552e-005 -38.0331 0 -0	32.8034	-0	1.14428e-005 -43.2815 0 -32.6058	-76.6751	-33.3195	0 -14.1868 -3.08763 -0	-12.5402	-0	9.10607 -9.62778 4.76249 9.62477	-28.12	20.1325	-1.01399e-005 -38.3535 0 -0	87.916	-0	-1.12937e-005 -42.7176 0 -7.52291	-70.2202	-7.98876	0 -13.9965 -2.83857 -0	-34.012	-0
-0.000374905	103.584	86.5161	1.96363	4.17399	4.60288	0 0 0 5.17938	3.33383	3.57388	-0.214371 12.3768 -1.12219 2.47206	0.104724	4.95136	-0.00137213 12.3873 0.296195 -0.60162	-1.50733	2.41824	0.0883157 12.5016 0.82912 2.6119	-17.444	2.25879	-1 10.1794 0.943522 -2.16201	0.00258796	2.42347	0.667525 10.2797 -1.57149 -0.930168	3.13671	1.04641	0.0883157 12.5016 0.82912 -15	0	-0	20.61 4.45006 1.43784 29.376	19.9815	165.573	0 -30.3438 0 -0	26.2939	-0	0 -18.964 0 1.35001e-014	-2.68326e-015	-112.483	0 -9.48199 0 1.22245	4.37968	-2.58917e-014	0 -3.17138 0 -0	7.12502	-0	0 -9.48199 0 25	15	-1.36605e-015	0.0883157 12.5016 0.82912 15	0	-0	-20.61 4.45 1.44 -21.0892	11.3568	-179.81	0 -29.5102 0 -0	34.2586	-0	0 -19.2342 0 1.83604e-016	-1.59464e-015	103.136	0 -9.61712 0 1.22	4.38	-0	0 -3.29215 0 -0	7.12502	-0	0 -9.61712 0 25	15	-7.97034e-015	-8.46272 -9.62775 4.76248 -2.00431	-8.82168	-4.84806	1.00552e-005 -38.0331 0 -0	32.084	-0	1.14428e-005 -43.2815 0 -32.8532	-75.8577	-33.6617	0 -14.1868 -3.08763 -0	-11.9444	-0	9.10607 -9.62778 4.76249 9.92892	-29.9574	20.7463	-1.01399e-005 -38.3535 0 -0	88.1483	-0	-1.12937e-005 -42.7176 0 -6.16781	-70.8046	-6.52795	0 -13.9965 -2.83857 -0	-33.8528	-0
-0.0349809	103.804	87.6758	1.52254	4.07722	4.3003	0 0 0 5.69724	3.35052	3.89448	-0.214371 12.3768 -1.12219 2.45877	0.14789	5.39221	-0.00137213 12.3873 0.296195 -0.916919	-1.40643	2.63543	0.0883157 12.5016 0.82912 2.75195	-17.4696	2.41268	-1 10.1794 0.943522 -2.36338	0.120634	2.61531	0.667525 10.2797 -1.57149 -1.00271	3.19339	1.13396	0.0883157 12.5016 0.82912 -15	0	-0	20.61 4.45006 1.43784 30.8489	21.3221	165.135	0 -30.3438 0 -0	27.7975	-0	0 -18.964 0 1.35461e-014	-2.56924e-015	-111.479	0 -9.48199 0 1.22245	4.37968	-2.58917e-014	0 -3.17138 0 -0	7.12502	-0	0 -9.48199 0 25	15	-1.36605e-015	0.0883157 12.5016 0.82912 15	0	-0	-20.61 4.45 1.44 -21.9637	10.8121	-177.684	0 -29.5102 0 -0	35.8019	-0	0 -19.2342 0 1.71398e-016	-1.5414e-015	102.69	0 -9.61712 0 1.22	4.38	-0	0 -3.29215 0 -0	7.12502	-0	0 -9.61712 0 25	15	-7.97034e-015	-8.46272 -9.62775 4.76248 -1.3669	-7.83815	-4.74726	1.00552e-005 -38.0331 0 -0	31.4167	-0	1.14428e-005 -43.2815 0 -33.4255	-75.1442	-34.3268	0 -14.1868 -3.08763 -0	-11.2606	-0	9.10607 -9.62778 4.76249 10.2226	-31.7268	21.2708	-1.01399e-005 -38.3535 0 -0	88.1308	-0	-1.12937e-005 -42.7176 0 -4.97817	-71.321	-5.25354	0 -13.9965 -2.83857 -0	-33.7264	-0
